<svg xmlns="http://www.w3.org/2000/svg" viewBox="0 0 600 360" fill="none" color="#432e23" aria-hidden="true" focusable="false" class="pointer-events-none "><defs><g id="ribbon-motif-_R_0_" fill="currentColor"><path d="M0 0C-7 -1 -12 5 -12 13C-12 25 -4 32 10 32H70C81 32 86 35 95 44L150 96C158 104 160 112 160 124V149H187V124C187 104 181 93 167 79L113 28C100 14 90 7 71 7H11C4 7 2 4 0 0Z"></path><path d="M36 39H63V68C63 80 68 84 80 84H109C116 84 120 89 120 96C120 103 115 107 108 107H78C51 107 36 88 36 68Z"></path><path d="M-58 2L-28 -28C-20 -36 -11 -40 -1 -40C5 -40 8 -34 7 -27C6 -20 1 -17 -5 -16C-11 -15 -15 -11 -20 -6L-39 21Z"></path></g><pattern id="ribbon-_R_0_" width="155" height="750" patternUnits="userSpaceOnUse"><use href="#ribbon-motif-_R_0_" transform="translate(-163 -70)"></use><use href="#ribbon-motif-_R_0_" transform="translate(-8 -70)"></use><use href="#ribbon-motif-_R_0_" transform="translate(147 -70)"></use><use href="#ribbon-motif-_R_0_" transform="translate(302 -70)"></use><use href="#ribbon-motif-_R_0_" transform="translate(-194 80)"></use><use href="#ribbon-motif-_R_0_" transform="translate(-39 80)"></use><use href="#ribbon-motif-_R_0_" transform="translate(116 80)"></use><use href="#ribbon-motif-_R_0_" transform="translate(271 80)"></use><use href="#ribbon-motif-_R_0_" transform="translate(-225 230)"></use><use href="#ribbon-motif-_R_0_" transform="translate(-70 230)"></use><use href="#ribbon-motif-_R_0_" transform="translate(85 230)"></use><use href="#ribbon-motif-_R_0_" transform="translate(240 230)"></use><use href="#ribbon-motif-_R_0_" transform="translate(-256 380)"></use><use href="#ribbon-motif-_R_0_" transform="translate(-101 380)"></use><use href="#ribbon-motif-_R_0_" transform="translate(54 380)"></use><use href="#ribbon-motif-_R_0_" transform="translate(209 380)"></use><use href="#ribbon-motif-_R_0_" transform="translate(-287 530)"></use><use href="#ribbon-motif-_R_0_" transform="translate(-132 530)"></use><use href="#ribbon-motif-_R_0_" transform="translate(23 530)"></use><use href="#ribbon-motif-_R_0_" transform="translate(178 530)"></use><use href="#ribbon-motif-_R_0_" transform="translate(-318 680)"></use><use href="#ribbon-motif-_R_0_" transform="translate(-163 680)"></use><use href="#ribbon-motif-_R_0_" transform="translate(-8 680)"></use><use href="#ribbon-motif-_R_0_" transform="translate(147 680)"></use></pattern></defs><rect width="600" height="360" fill="url(#ribbon-_R_0_)"></rect></svg>